<?xml version="1.0" encoding="UTF-8" standalone="no"?>
<!-- Created with Inkscape (http://www.inkscape.org/) -->

<svg
   xmlns:dc="http://purl.org/dc/elements/1.1/"
   xmlns:cc="http://creativecommons.org/ns#"
   xmlns:rdf="http://www.w3.org/1999/02/22-rdf-syntax-ns#"
   xmlns:svg="http://www.w3.org/2000/svg"
   xmlns="http://www.w3.org/2000/svg"
   xmlns:sodipodi="http://sodipodi.sourceforge.net/DTD/sodipodi-0.dtd"
   xmlns:inkscape="http://www.inkscape.org/namespaces/inkscape"
   id="svg2"
   version="1.1"
   inkscape:version="0.48.4 r9939"
   width="720.40002"
   height="540.40002"
   xml:space="preserve"
   sodipodi:docname="ap.png"><metadata
     id="metadata8"><rdf:RDF><cc:Work
         rdf:about=""><dc:format>image/svg+xml</dc:format><dc:type
           rdf:resource="http://purl.org/dc/dcmitype/StillImage" /><dc:title></dc:title></cc:Work></rdf:RDF></metadata><defs
     id="defs6"><clipPath
       clipPathUnits="userSpaceOnUse"
       id="clipPath20"><path
         d="m 72,43.2 446.4,0 0,345.6 -446.4,0 0,-345.6 z"
         id="path22"
         inkscape:connector-curvature="0" /></clipPath><clipPath
       clipPathUnits="userSpaceOnUse"
       id="clipPath30"><path
         d="m 72,43.2 446.4,0 0,345.6 -446.4,0 0,-345.6 z"
         id="path32"
         inkscape:connector-curvature="0" /></clipPath><clipPath
       clipPathUnits="userSpaceOnUse"
       id="clipPath40"><path
         d="m 72,43.2 446.4,0 0,345.6 -446.4,0 0,-345.6 z"
         id="path42"
         inkscape:connector-curvature="0" /></clipPath><clipPath
       clipPathUnits="userSpaceOnUse"
       id="clipPath60"><path
         d="m 72,43.2 446.4,0 0,345.6 -446.4,0 0,-345.6 z"
         id="path62"
         inkscape:connector-curvature="0" /></clipPath><clipPath
       clipPathUnits="userSpaceOnUse"
       id="clipPath80"><path
         d="m 72,43.2 446.4,0 0,345.6 -446.4,0 0,-345.6 z"
         id="path82"
         inkscape:connector-curvature="0" /></clipPath><clipPath
       clipPathUnits="userSpaceOnUse"
       id="clipPath100"><path
         d="m 72,43.2 446.4,0 0,345.6 -446.4,0 0,-345.6 z"
         id="path102"
         inkscape:connector-curvature="0" /></clipPath><clipPath
       clipPathUnits="userSpaceOnUse"
       id="clipPath120"><path
         d="m 72,43.2 446.4,0 0,345.6 -446.4,0 0,-345.6 z"
         id="path122"
         inkscape:connector-curvature="0" /></clipPath><clipPath
       clipPathUnits="userSpaceOnUse"
       id="clipPath140"><path
         d="m 72,43.2 446.4,0 0,345.6 -446.4,0 0,-345.6 z"
         id="path142"
         inkscape:connector-curvature="0" /></clipPath><clipPath
       clipPathUnits="userSpaceOnUse"
       id="clipPath160"><path
         d="m 72,43.2 446.4,0 0,345.6 -446.4,0 0,-345.6 z"
         id="path162"
         inkscape:connector-curvature="0" /></clipPath><clipPath
       clipPathUnits="userSpaceOnUse"
       id="clipPath180"><path
         d="m 72,43.2 446.4,0 0,345.6 -446.4,0 0,-345.6 z"
         id="path182"
         inkscape:connector-curvature="0" /></clipPath><clipPath
       clipPathUnits="userSpaceOnUse"
       id="clipPath204"><path
         d="m 72,43.2 446.4,0 0,345.6 -446.4,0 0,-345.6 z"
         id="path206"
         inkscape:connector-curvature="0" /></clipPath><clipPath
       clipPathUnits="userSpaceOnUse"
       id="clipPath228"><path
         d="m -1021,-416 2702,0 0,1583 -2702,0 0,-1583 z"
         id="path230"
         inkscape:connector-curvature="0" /></clipPath><clipPath
       clipPathUnits="userSpaceOnUse"
       id="clipPath238"><path
         d="m 72,43.2 446.4,0 0,345.6 -446.4,0 0,-345.6 z"
         id="path240"
         inkscape:connector-curvature="0" /></clipPath><clipPath
       clipPathUnits="userSpaceOnUse"
       id="clipPath262"><path
         d="m -1021,-416 2702,0 0,1583 -2702,0 0,-1583 z"
         id="path264"
         inkscape:connector-curvature="0" /></clipPath><clipPath
       clipPathUnits="userSpaceOnUse"
       id="clipPath272"><path
         d="m 72,43.2 446.4,0 0,345.6 -446.4,0 0,-345.6 z"
         id="path274"
         inkscape:connector-curvature="0" /></clipPath><clipPath
       clipPathUnits="userSpaceOnUse"
       id="clipPath296"><path
         d="m -1021,-416 2702,0 0,1583 -2702,0 0,-1583 z"
         id="path298"
         inkscape:connector-curvature="0" /></clipPath><clipPath
       clipPathUnits="userSpaceOnUse"
       id="clipPath306"><path
         d="m 72,43.2 446.4,0 0,345.6 -446.4,0 0,-345.6 z"
         id="path308"
         inkscape:connector-curvature="0" /></clipPath><clipPath
       clipPathUnits="userSpaceOnUse"
       id="clipPath330"><path
         d="m -1021,-416 2702,0 0,1583 -2702,0 0,-1583 z"
         id="path332"
         inkscape:connector-curvature="0" /></clipPath><clipPath
       clipPathUnits="userSpaceOnUse"
       id="clipPath340"><path
         d="m 72,43.2 446.4,0 0,345.6 -446.4,0 0,-345.6 z"
         id="path342"
         inkscape:connector-curvature="0" /></clipPath><clipPath
       clipPathUnits="userSpaceOnUse"
       id="clipPath364"><path
         d="m -1021,-416 2702,0 0,1583 -2702,0 0,-1583 z"
         id="path366"
         inkscape:connector-curvature="0" /></clipPath><clipPath
       clipPathUnits="userSpaceOnUse"
       id="clipPath374"><path
         d="m 72,43.2 446.4,0 0,345.6 -446.4,0 0,-345.6 z"
         id="path376"
         inkscape:connector-curvature="0" /></clipPath><clipPath
       clipPathUnits="userSpaceOnUse"
       id="clipPath394"><path
         d="m 72,43.2 446.4,0 0,345.6 -446.4,0 0,-345.6 z"
         id="path396"
         inkscape:connector-curvature="0" /></clipPath><clipPath
       clipPathUnits="userSpaceOnUse"
       id="clipPath414"><path
         d="m 72,43.2 446.4,0 0,345.6 -446.4,0 0,-345.6 z"
         id="path416"
         inkscape:connector-curvature="0" /></clipPath><clipPath
       clipPathUnits="userSpaceOnUse"
       id="clipPath434"><path
         d="m 72,43.2 446.4,0 0,345.6 -446.4,0 0,-345.6 z"
         id="path436"
         inkscape:connector-curvature="0" /></clipPath></defs><sodipodi:namedview
     pagecolor="#ffffff"
     bordercolor="#666666"
     borderopacity="1"
     objecttolerance="10"
     gridtolerance="10"
     guidetolerance="10"
     inkscape:pageopacity="0"
     inkscape:pageshadow="2"
     inkscape:window-width="1366"
     inkscape:window-height="744"
     id="namedview4"
     showgrid="false"
     fit-margin-left="0.2"
     fit-margin-top="0.2"
     fit-margin-right="0.2"
     fit-margin-bottom="0.2"
     inkscape:zoom="0.87407407"
     inkscape:cx="365.49036"
     inkscape:cy="298.61312"
     inkscape:window-x="0"
     inkscape:window-y="24"
     inkscape:window-maximized="1"
     inkscape:current-layer="g10" /><g
     id="g10"
     inkscape:groupmode="layer"
     inkscape:label="action_nSR_cAF_potential"
     transform="matrix(1.25,0,0,-1.25,0.2,540.2)"><path
       d="M 0,0 576,0 576,432 0,432 0,0 z"
       style="fill:#ffffff;fill-opacity:1;fill-rule:nonzero;stroke:none"
       id="path12"
       inkscape:connector-curvature="0" /><path
       d="m 72,43.2 446.4,0 0,345.6 -446.4,0 0,-345.6 z"
       style="fill:#ffffff;fill-opacity:1;fill-rule:nonzero;stroke:none"
       id="path14"
       inkscape:connector-curvature="0" /><g
       clip-path="url(#clipPath20)"
       id="g18"><path
         inkscape:connector-curvature="0"
         id="path24"
         style="fill:none;stroke:#0000ff;stroke-width:1.5;stroke-linecap:square;stroke-linejoin:round;stroke-miterlimit:10;stroke-opacity:1;stroke-dasharray:none"
         d="m 72,97.062951 63.77052,0.320177 0.59944,135.306952 0.28059,102.57933 0.23595,15.40768 0.21044,2.98359 0.0446,0.0464 0.0383,-0.0708 0,0 0.12116,-0.75797 0.26146,-3.40059 0.72698,-13.41378 1.04584,-17.59457 0.91192,-11.66999 0.95018,-9.39779 1.03308,-8.04993 1.33918,-8.57635 2.07892,-13.36429 5.84138,-39.55533 1.39657,-7.20298 1.30092,-5.57967 1.26904,-4.48984 1.26903,-3.6953 1.30092,-3.12001 1.35193,-2.67604 1.42846,-2.34062 1.5305,-2.08316 1.66441,-1.88997 1.84934,-1.76117 2.10443,-1.69239 2.46792,-1.69304 3.03547,-1.80297 4.01117,-2.10895 6.24951,-3.00622 22.85535,-10.83356 11.26188,-5.66511 11.52333,-6.04735 11.9761,-6.53853 13.19412,-7.4641 39.52497,-22.56543 7.54405,-3.90535 6.63851,-3.1906 6.16023,-2.71675 5.90515,-2.36298 5.8095,-2.08599 5.82862,-1.85672 5.94979,-1.66145 6.16023,-1.48822 6.46634,-1.33157 6.93185,-1.19738 7.62058,-1.08658 8.55162,-0.990027 9.73138,-0.897698 11.17898,-0.802569 12.94541,-0.700842 15.13912,-0.590861 17.94503,-0.471072 21.71386,-0.339705 27.15348,-0.192837 28.97095,-0.03078 0,0" /></g><g
       clip-path="url(#clipPath30)"
       id="g28"><path
         inkscape:connector-curvature="0"
         id="path34"
         style="fill:none;stroke:#008000;stroke-width:1.5;stroke-linecap:square;stroke-linejoin:round;stroke-miterlimit:10;stroke-opacity:1;stroke-dasharray:none"
         d="m 72,86.396518 63.77052,0.247116 0.66959,148.396196 0.31885,102.98173 0.24871,13.35675 0.25508,3.9106 0.19769,0.5845 0.0957,-0.13423 0.18494,-0.76743 0.34436,-2.56261 0.68872,-7.12339 2.49343,-26.68815 1.23714,-10.49398 1.167,-8.07834 1.14787,-6.44377 1.16063,-5.28439 1.23077,-4.58134 1.3902,-4.31077 1.77282,-4.74029 2.81228,-6.81464 4.2216,-9.6431 4.62337,-9.9944 6.29415,-13.04237 5.04424,-9.99736 3.87088,-7.19131 3.55839,-6.14632 3.70507,-5.95124 4.54683,-6.85938 13.35993,-19.90574 5.40774,-8.62201 5.53528,-9.24891 6.00718,-10.48324 15.98727,-28.19491 3.29056,-5.14398 2.85692,-4.06514 2.61459,-3.34314 2.4743,-2.81035 2.40414,-2.39924 2.38502,-2.06879 2.40415,-1.79326 2.48067,-1.573203 2.60184,-1.385684 2.78677,-1.229922 3.04823,-1.098823 3.4181,-0.991009 3.93464,-0.903425 4.68076,-0.839316 5.76485,-0.799031 7.28897,-0.776423 8.97889,-0.726634 10.22879,-0.601534 12.09089,-0.478754 17.86213,-0.45963 98.6211,-2.038958 36.15789,-0.506216 40.05426,-0.330514 4.62336,-0.02567 0,0" /></g><g
       clip-path="url(#clipPath60)"
       id="g58"><path
         inkscape:connector-curvature="0"
         id="path64"
         style="fill:none;stroke:#000000;stroke-width:0.5;stroke-linecap:butt;stroke-linejoin:round;stroke-miterlimit:10;stroke-opacity:1;stroke-dasharray:1, 3;stroke-dashoffset:0"
         d="m 135.77143,43.2 0,345.6" /></g><g
       clip-path="url(#clipPath80)"
       id="g78"><path
         inkscape:connector-curvature="0"
         id="path84"
         style="fill:none;stroke:#000000;stroke-width:0.5;stroke-linecap:butt;stroke-linejoin:round;stroke-miterlimit:10;stroke-opacity:1;stroke-dasharray:1, 3;stroke-dashoffset:0"
         d="m 199.54286,43.2 0,345.6" /></g><g
       clip-path="url(#clipPath100)"
       id="g98"><path
         inkscape:connector-curvature="0"
         id="path104"
         style="fill:none;stroke:#000000;stroke-width:0.5;stroke-linecap:butt;stroke-linejoin:round;stroke-miterlimit:10;stroke-opacity:1;stroke-dasharray:1, 3;stroke-dashoffset:0"
         d="m 263.31429,43.2 0,345.6" /></g><g
       clip-path="url(#clipPath120)"
       id="g118"><path
         inkscape:connector-curvature="0"
         id="path124"
         style="fill:none;stroke:#000000;stroke-width:0.5;stroke-linecap:butt;stroke-linejoin:round;stroke-miterlimit:10;stroke-opacity:1;stroke-dasharray:1, 3;stroke-dashoffset:0"
         d="m 327.08571,43.2 0,345.6" /></g><g
       clip-path="url(#clipPath140)"
       id="g138"><path
         inkscape:connector-curvature="0"
         id="path144"
         style="fill:none;stroke:#000000;stroke-width:0.5;stroke-linecap:butt;stroke-linejoin:round;stroke-miterlimit:10;stroke-opacity:1;stroke-dasharray:1, 3;stroke-dashoffset:0"
         d="m 390.85714,43.2 0,345.6" /></g><g
       clip-path="url(#clipPath160)"
       id="g158"><path
         inkscape:connector-curvature="0"
         id="path164"
         style="fill:none;stroke:#000000;stroke-width:0.5;stroke-linecap:butt;stroke-linejoin:round;stroke-miterlimit:10;stroke-opacity:1;stroke-dasharray:1, 3;stroke-dashoffset:0"
         d="m 454.62857,43.2 0,345.6" /></g><g
       clip-path="url(#clipPath238)"
       id="g236"><path
         inkscape:connector-curvature="0"
         id="path242"
         style="fill:none;stroke:#000000;stroke-width:0.5;stroke-linecap:butt;stroke-linejoin:round;stroke-miterlimit:10;stroke-opacity:1;stroke-dasharray:1, 3;stroke-dashoffset:0"
         d="m 72,86.4 446.4,0" /></g><g
       clip-path="url(#clipPath272)"
       id="g270"><path
         inkscape:connector-curvature="0"
         id="path276"
         style="fill:none;stroke:#000000;stroke-width:0.5;stroke-linecap:butt;stroke-linejoin:round;stroke-miterlimit:10;stroke-opacity:1;stroke-dasharray:1, 3;stroke-dashoffset:0"
         d="m 72,129.6 446.4,0" /></g><g
       clip-path="url(#clipPath306)"
       id="g304"><path
         inkscape:connector-curvature="0"
         id="path310"
         style="fill:none;stroke:#000000;stroke-width:0.5;stroke-linecap:butt;stroke-linejoin:round;stroke-miterlimit:10;stroke-opacity:1;stroke-dasharray:1, 3;stroke-dashoffset:0"
         d="m 72,172.8 446.4,0" /></g><g
       clip-path="url(#clipPath340)"
       id="g338"><path
         inkscape:connector-curvature="0"
         id="path344"
         style="fill:none;stroke:#000000;stroke-width:0.5;stroke-linecap:butt;stroke-linejoin:round;stroke-miterlimit:10;stroke-opacity:1;stroke-dasharray:1, 3;stroke-dashoffset:0"
         d="m 72,216 446.4,0" /></g><g
       clip-path="url(#clipPath374)"
       id="g372"><path
         inkscape:connector-curvature="0"
         id="path378"
         style="fill:none;stroke:#000000;stroke-width:0.5;stroke-linecap:butt;stroke-linejoin:round;stroke-miterlimit:10;stroke-opacity:1;stroke-dasharray:1, 3;stroke-dashoffset:0"
         d="m 72,259.2 446.4,0" /></g><g
       clip-path="url(#clipPath394)"
       id="g392"><path
         inkscape:connector-curvature="0"
         id="path398"
         style="fill:none;stroke:#000000;stroke-width:0.5;stroke-linecap:butt;stroke-linejoin:round;stroke-miterlimit:10;stroke-opacity:1;stroke-dasharray:1, 3;stroke-dashoffset:0"
         d="m 72,302.4 446.4,0" /></g></g></svg>